<?xml version="1.0" encoding="UTF-8" standalone="no"?>
<!-- Created with Inkscape (http://www.inkscape.org/) -->
<svg xmlns:dc="http://purl.org/dc/elements/1.1/" xmlns:cc="http://creativecommons.org/ns#" xmlns:rdf="http://www.w3.org/1999/02/22-rdf-syntax-ns#" xmlns:svg="http://www.w3.org/2000/svg" xmlns="http://www.w3.org/2000/svg" xmlns:sodipodi="http://sodipodi.sourceforge.net/DTD/sodipodi-0.dtd" xmlns:inkscape="http://www.inkscape.org/namespaces/inkscape" width="45.509541mm" height="43.271053mm" viewBox="0 0 45.509541 43.271053" version="1.1" id="svg2111" inkscape:version="0.92.4 (5da689c313, 2019-01-14)" sodipodi:docname="rocket.svg">
  <defs id="defs2105"/>
  <sodipodi:namedview id="base" pagecolor="#ffffff" bordercolor="#666666" borderopacity="1.0" inkscape:pageopacity="0.0" inkscape:pageshadow="2" inkscape:zoom="1.4" inkscape:cx="44.53613" inkscape:cy="25.65625" inkscape:document-units="mm" inkscape:current-layer="layer1" showgrid="false" inkscape:window-width="1920" inkscape:window-height="1051" inkscape:window-x="1366" inkscape:window-y="0" inkscape:window-maximized="1"/>
  <metadata id="metadata2108">
    <rdf:RDF>
      <cc:Work rdf:about="">
        <dc:format>image/svg+xml</dc:format>
        <dc:type rdf:resource="http://purl.org/dc/dcmitype/StillImage"/>
        <dc:title/>
      </cc:Work>
    </rdf:RDF>
  </metadata>
  <g inkscape:label="Capa 1" inkscape:groupmode="layer" id="layer1" transform="translate(-77.408921,-64.453737)">
    <path style="fill:#097138;fill-opacity:1;stroke-width:0.11312147;stroke-miterlimit:4;stroke-dasharray:none" d="m 98.632126,107.62044 c -3.431358,-0.3113 -6.553829,-1.09655 -9.133938,-2.29708 -9.407435,-4.37753 -14.113059,-14.949626 -11.262464,-25.30369 1.893457,-6.877547 7.166533,-12.25518 14.118379,-14.398136 6.450702,-1.988497 13.505207,-1.414931 19.039507,1.547995 2.33475,1.249898 4.82541,3.220474 6.4661,5.115811 4.29035,4.956327 5.95986,11.543772 4.59173,18.118551 -0.69095,3.317801 -2.38857,6.684541 -4.78721,9.490949 -1.06131,1.2416 -3.20857,3.16237 -4.50297,4.02789 -2.06938,1.38371 -4.59082,2.43962 -6.85602,2.87118 -1.95583,0.37247 -5.7778,0.94482 -6.2161,0.93062 -0.258099,-0.008 -0.91316,-0.0546 -1.457014,-0.10929 z m 7.033674,-6.83234 c 0.50577,-0.72855 1.28502,-3.726321 1.15389,-4.439143 -0.11572,-0.617141 -0.51734,-1.117943 -1.43293,-1.774848 -1.32311,-0.94919 -1.25597,-1.219311 0.50692,-2.038851 1.17393,-0.546145 2.41393,-0.867266 3.92255,-1.016913 1.22114,-0.121273 1.70619,-0.354997 1.93986,-0.934988 0.14815,-0.367017 0.14582,-0.479513 -0.0231,-0.983066 -0.54975,-1.63699 -3.2286,-4.29103 -4.57044,-4.528597 -0.67359,-0.119121 -1.20668,-1.098392 -1.72598,-3.172964 -0.78818,-3.148064 -1.86799,-5.051148 -3.93436,-6.934034 -1.996352,-1.818977 -5.418447,-3.653124 -6.815742,-3.653124 -1.006906,0 -1.863123,0.742749 -2.79272,2.422561 -1.120334,2.02488 -1.576577,4.124783 -1.484788,6.832451 0.0694,2.02803 0.350675,3.282525 1.085603,4.823725 0.686315,1.439202 1.092558,2.644204 1.228781,3.63992 0.10418,0.796285 0.09264,1.07154 -0.09264,1.945799 -0.307864,1.434268 -0.278918,3.755921 0.05786,4.964427 0.519657,1.841909 0.819411,2.02617 1.92886,1.183698 1.530274,-1.162195 3.279749,-2.055237 4.709453,-2.404116 1.366603,-0.333141 1.586403,-0.121274 1.738943,1.677537 0.15509,1.823879 0.90159,3.047894 2.49585,4.087756 1.28873,0.84106 1.68652,0.89785 2.1004,0.30146 z" id="path1518" inkscape:connector-curvature="0"/>
    <ellipse style="fill:#097138;fill-opacity:1;stroke-width:0.26499999;stroke-miterlimit:4;stroke-dasharray:none" id="path2662" cx="97.630646" cy="81.549942" rx="3.4017856" ry="3.6852679"/>
  </g>
</svg>